{
	"asset":{
		"generator":"Khronos glTF Blender I/O v3.6.28",
		"version":"2.0"
	},
	"extensionsUsed":[
		"KHR_materials_transmission",
		"KHR_materials_ior"
	],
	"scene":0,
	"scenes":[
		{
			"name":"Scene",
			"nodes":[
				0,
				1,
				2,
				3,
				4,
				5
			]
		}
	],
	"nodes":[
		{
			"mesh":0,
			"name":"Circle",
			"rotation":[
				-0.09856607764959335,
				-0.7333394885063171,
				-0.5372668504714966,
				0.40477436780929565
			],
			"scale":[
				0.11545999348163605,
				0.11546000838279724,
				0.11546000093221664
			],
			"translation":[
				1.2108372449874878,
				1.2233860492706299,
				-2.094452381134033
			]
		},
		{
			"mesh":1,
			"name":"Cylinder",
			"rotation":[
				0.004767486825585365,
				0,
				0,
				0.9999886751174927
			],
			"scale":[
				0.2636771500110626,
				0.2636771500110626,
				0.2636771500110626
			],
			"translation":[
				2.318235397338867,
				1.001556396484375,
				-2.072510004043579
			]
		},
		{
			"mesh":2,
			"name":"Circle.002",
			"rotation":[
				0.12523317337036133,
				-0.971671998500824,
				0.16618694365024567,
				0.11203687638044357
			],
			"scale":[
				0.25410133600234985,
				0.25410133600234985,
				0.25410133600234985
			],
			"translation":[
				0.2845492362976074,
				1.2791054248809814,
				-2.007843494415283
			]
		},
		{
			"mesh":3,
			"name":"Icosphere",
			"scale":[
				0.07301707565784454,
				0.07301707565784454,
				0.07301707565784454
			],
			"translation":[
				1.4374781847000122,
				1.5718772411346436,
				-2.099768877029419
			]
		},
		{
			"mesh":4,
			"name":"Icosphere.001",
			"scale":[
				0.04622013121843338,
				0.04622013121843338,
				0.04622013121843338
			],
			"translation":[
				1.1057981252670288,
				1.2485278844833374,
				-2.593388319015503
			]
		},
		{
			"mesh":5,
			"name":"Icosphere.002",
			"scale":[
				0.03735043480992317,
				0.03735043480992317,
				0.03735043480992317
			],
			"translation":[
				1.5256297588348389,
				1.4740965366363525,
				-2.1424360275268555
			]
		}
	],
	"materials":[
		{
			"doubleSided":true,
			"name":"Material.001",
			"pbrMetallicRoughness":{
				"metallicFactor":0,
				"roughnessFactor":0.6977273225784302
			}
		},
		{
			"doubleSided":true,
			"name":"Material",
			"pbrMetallicRoughness":{
				"metallicFactor":0,
				"roughnessFactor":0.6977273225784302
			}
		},
		{
			"doubleSided":true,
			"extensions":{
				"KHR_materials_transmission":{
					"transmissionFactor":1
				},
				"KHR_materials_ior":{
					"ior":1.4500000476837158
				}
			},
			"name":"Material.006",
			"pbrMetallicRoughness":{
				"baseColorFactor":[
					0.6582974195480347,
					0.8000000715255737,
					0.6627746224403381,
					1
				],
				"metallicFactor":0,
				"roughnessFactor":0.04318181797862053
			}
		},
		{
			"doubleSided":true,
			"extensions":{
				"KHR_materials_transmission":{
					"transmissionFactor":1
				},
				"KHR_materials_ior":{
					"ior":1.4500000476837158
				}
			},
			"name":"Material.007",
			"pbrMetallicRoughness":{
				"baseColorFactor":[
					0.6582974195480347,
					0.8000000715255737,
					0.6627746224403381,
					1
				],
				"metallicFactor":0,
				"roughnessFactor":0.04318181797862053
			}
		},
		{
			"doubleSided":true,
			"extensions":{
				"KHR_materials_transmission":{
					"transmissionFactor":1
				},
				"KHR_materials_ior":{
					"ior":1.4500000476837158
				}
			},
			"name":"Material.010",
			"pbrMetallicRoughness":{
				"baseColorFactor":[
					0.7310977578163147,
					0.8000000715255737,
					0.7904514074325562,
					1
				],
				"metallicFactor":0,
				"roughnessFactor":0
			}
		}
	],
	"meshes":[
		{
			"name":"Circle.001",
			"primitives":[
				{
					"attributes":{
						"POSITION":0,
						"NORMAL":1,
						"TEXCOORD_0":2
					},
					"indices":3,
					"material":0
				}
			]
		},
		{
			"name":"Cylinder.002",
			"primitives":[
				{
					"attributes":{
						"POSITION":4,
						"NORMAL":5,
						"TEXCOORD_0":6
					},
					"indices":7,
					"material":1
				}
			]
		},
		{
			"name":"Circle.006",
			"primitives":[
				{
					"attributes":{
						"POSITION":8,
						"NORMAL":9,
						"TEXCOORD_0":10
					},
					"indices":11,
					"material":0
				}
			]
		},
		{
			"name":"Icosphere.001",
			"primitives":[
				{
					"attributes":{
						"POSITION":12,
						"NORMAL":13,
						"TEXCOORD_0":14
					},
					"indices":15,
					"material":2
				}
			]
		},
		{
			"name":"Icosphere.002",
			"primitives":[
				{
					"attributes":{
						"POSITION":16,
						"NORMAL":17,
						"TEXCOORD_0":18
					},
					"indices":15,
					"material":3
				}
			]
		},
		{
			"name":"Icosphere.003",
			"primitives":[
				{
					"attributes":{
						"POSITION":19,
						"NORMAL":20,
						"TEXCOORD_0":21
					},
					"indices":15,
					"material":4
				}
			]
		}
	],
	"accessors":[
		{
			"bufferView":0,
			"componentType":5126,
			"count":26229,
			"max":[
				3.2488698959350586,
				2.521893262863159,
				3.232661008834839
			],
			"min":[
				-3.1260762214660645,
				-1.1860202550888062,
				-3.0846238136291504
			],
			"type":"VEC3"
		},
		{
			"bufferView":1,
			"componentType":5126,
			"count":26229,
			"type":"VEC3"
		},
		{
			"bufferView":2,
			"componentType":5126,
			"count":26229,
			"type":"VEC2"
		},
		{
			"bufferView":3,
			"componentType":5123,
			"count":136239,
			"type":"SCALAR"
		},
		{
			"bufferView":4,
			"componentType":5126,
			"count":3293,
			"max":[
				1.8878241777420044,
				1.916611909866333,
				1.987788200378418
			],
			"min":[
				-1.787691354751587,
				-0.0125923752784729,
				-1.9105243682861328
			],
			"type":"VEC3"
		},
		{
			"bufferView":5,
			"componentType":5126,
			"count":3293,
			"type":"VEC3"
		},
		{
			"bufferView":6,
			"componentType":5126,
			"count":3293,
			"type":"VEC2"
		},
		{
			"bufferView":7,
			"componentType":5123,
			"count":16731,
			"type":"SCALAR"
		},
		{
			"bufferView":8,
			"componentType":5126,
			"count":4856,
			"max":[
				1.3352888822555542,
				0.9553634524345398,
				1.080621361732483
			],
			"min":[
				-0.9632849097251892,
				-0.36257198452949524,
				-1.043112874031067
			],
			"type":"VEC3"
		},
		{
			"bufferView":9,
			"componentType":5126,
			"count":4856,
			"type":"VEC3"
		},
		{
			"bufferView":10,
			"componentType":5126,
			"count":4856,
			"type":"VEC2"
		},
		{
			"bufferView":11,
			"componentType":5123,
			"count":23631,
			"type":"SCALAR"
		},
		{
			"bufferView":12,
			"componentType":5126,
			"count":2737,
			"max":[
				1,
				1,
				0.9999999403953552
			],
			"min":[
				-0.9999999403953552,
				-1,
				-0.9999999403953552
			],
			"type":"VEC3"
		},
		{
			"bufferView":13,
			"componentType":5126,
			"count":2737,
			"type":"VEC3"
		},
		{
			"bufferView":14,
			"componentType":5126,
			"count":2737,
			"type":"VEC2"
		},
		{
			"bufferView":15,
			"componentType":5123,
			"count":15360,
			"type":"SCALAR"
		},
		{
			"bufferView":16,
			"componentType":5126,
			"count":2737,
			"max":[
				1,
				1,
				0.9999999403953552
			],
			"min":[
				-0.9999999403953552,
				-1,
				-0.9999999403953552
			],
			"type":"VEC3"
		},
		{
			"bufferView":17,
			"componentType":5126,
			"count":2737,
			"type":"VEC3"
		},
		{
			"bufferView":18,
			"componentType":5126,
			"count":2737,
			"type":"VEC2"
		},
		{
			"bufferView":19,
			"componentType":5126,
			"count":2737,
			"max":[
				1,
				1,
				0.9999999403953552
			],
			"min":[
				-0.9999999403953552,
				-1,
				-0.9999999403953552
			],
			"type":"VEC3"
		},
		{
			"bufferView":20,
			"componentType":5126,
			"count":2737,
			"type":"VEC3"
		},
		{
			"bufferView":21,
			"componentType":5126,
			"count":2737,
			"type":"VEC2"
		}
	],
	"bufferViews":[
		{
			"buffer":0,
			"byteLength":314748,
			"byteOffset":0,
			"target":34962
		},
		{
			"buffer":0,
			"byteLength":314748,
			"byteOffset":314748,
			"target":34962
		},
		{
			"buffer":0,
			"byteLength":209832,
			"byteOffset":629496,
			"target":34962
		},
		{
			"buffer":0,
			"byteLength":272478,
			"byteOffset":839328,
			"target":34963
		},
		{
			"buffer":0,
			"byteLength":39516,
			"byteOffset":1111808,
			"target":34962
		},
		{
			"buffer":0,
			"byteLength":39516,
			"byteOffset":1151324,
			"target":34962
		},
		{
			"buffer":0,
			"byteLength":26344,
			"byteOffset":1190840,
			"target":34962
		},
		{
			"buffer":0,
			"byteLength":33462,
			"byteOffset":1217184,
			"target":34963
		},
		{
			"buffer":0,
			"byteLength":58272,
			"byteOffset":1250648,
			"target":34962
		},
		{
			"buffer":0,
			"byteLength":58272,
			"byteOffset":1308920,
			"target":34962
		},
		{
			"buffer":0,
			"byteLength":38848,
			"byteOffset":1367192,
			"target":34962
		},
		{
			"buffer":0,
			"byteLength":47262,
			"byteOffset":1406040,
			"target":34963
		},
		{
			"buffer":0,
			"byteLength":32844,
			"byteOffset":1453304,
			"target":34962
		},
		{
			"buffer":0,
			"byteLength":32844,
			"byteOffset":1486148,
			"target":34962
		},
		{
			"buffer":0,
			"byteLength":21896,
			"byteOffset":1518992,
			"target":34962
		},
		{
			"buffer":0,
			"byteLength":30720,
			"byteOffset":1540888,
			"target":34963
		},
		{
			"buffer":0,
			"byteLength":32844,
			"byteOffset":1571608,
			"target":34962
		},
		{
			"buffer":0,
			"byteLength":32844,
			"byteOffset":1604452,
			"target":34962
		},
		{
			"buffer":0,
			"byteLength":21896,
			"byteOffset":1637296,
			"target":34962
		},
		{
			"buffer":0,
			"byteLength":32844,
			"byteOffset":1659192,
			"target":34962
		},
		{
			"buffer":0,
			"byteLength":32844,
			"byteOffset":1692036,
			"target":34962
		},
		{
			"buffer":0,
			"byteLength":21896,
			"byteOffset":1724880,
			"target":34962
		}
	],
	"buffers":[
		{
			"byteLength":1746776,
			"uri":"reef2.bin"
		}
	]
}
