{
	"asset":{
		"generator":"Khronos glTF Blender I/O v3.6.28",
		"version":"2.0"
	},
	"extensionsUsed":[
		"KHR_materials_transmission",
		"KHR_materials_ior"
	],
	"scene":0,
	"scenes":[
		{
			"name":"Scene",
			"nodes":[
				0,
				1,
				2,
				3,
				4,
				5,
				6,
				7,
				8,
				9
			]
		}
	],
	"nodes":[
		{
			"mesh":0,
			"name":"Circle",
			"rotation":[
				-0.09856607764959335,
				-0.7333394885063171,
				-0.5372668504714966,
				0.40477436780929565
			],
			"scale":[
				0.11545999348163605,
				0.11546000838279724,
				0.11546000093221664
			],
			"translation":[
				1.2108372449874878,
				1.2233860492706299,
				-2.094452381134033
			]
		},
		{
			"mesh":1,
			"name":"Plane",
			"rotation":[
				0,
				0,
				-1,
				0
			],
			"scale":[
				-1.6779476404190063,
				-1.2480701208114624,
				-2.17349910736084
			],
			"translation":[
				1.0437088012695312,
				0.41911476850509644,
				-0.9885479807853699
			]
		},
		{
			"mesh":2,
			"name":"Cylinder",
			"rotation":[
				-0.1735875904560089,
				0,
				0,
				0.9848184585571289
			],
			"scale":[
				0.2636771500110626,
				0.2636771500110626,
				0.2636771500110626
			],
			"translation":[
				-2.618069648742676,
				0.46027979254722595,
				-1.895582914352417
			]
		},
		{
			"mesh":3,
			"name":"Circle.002",
			"rotation":[
				0.12523317337036133,
				-0.971671998500824,
				0.16618694365024567,
				0.11203687638044357
			],
			"scale":[
				0.25410133600234985,
				0.25410133600234985,
				0.25410133600234985
			],
			"translation":[
				-5.6080474853515625,
				1.2791054248809814,
				-2.007843494415283
			]
		},
		{
			"name":"Turbulence",
			"translation":[
				-2.2019267082214355,
				0.1460239291191101,
				0
			]
		},
		{
			"mesh":4,
			"name":"Circle.003",
			"scale":[
				0.35838985443115234,
				0.35838985443115234,
				0.35838985443115234
			],
			"translation":[
				-2.2019267082214355,
				0.17253261804580688,
				0
			]
		},
		{
			"mesh":5,
			"name":"Circle.004",
			"translation":[
				-2.2019267082214355,
				0,
				0
			]
		},
		{
			"mesh":6,
			"name":"Icosphere",
			"scale":[
				0.07301707565784454,
				0.07301707565784454,
				0.07301707565784454
			],
			"translation":[
				1.4374781847000122,
				1.5718772411346436,
				-2.099768877029419
			]
		},
		{
			"mesh":7,
			"name":"Icosphere.001",
			"scale":[
				0.04622013121843338,
				0.04622013121843338,
				0.04622013121843338
			],
			"translation":[
				1.1057981252670288,
				1.2485278844833374,
				-2.593388319015503
			]
		},
		{
			"mesh":8,
			"name":"Icosphere.002",
			"scale":[
				0.03735043480992317,
				0.03735043480992317,
				0.03735043480992317
			],
			"translation":[
				1.5256297588348389,
				1.4740965366363525,
				-2.1424360275268555
			]
		}
	],
	"materials":[
		{
			"doubleSided":true,
			"name":"Material.001",
			"pbrMetallicRoughness":{
				"metallicFactor":0,
				"roughnessFactor":0.6977273225784302
			}
		},
		{
			"doubleSided":true,
			"name":"Material.003",
			"pbrMetallicRoughness":{
				"baseColorFactor":[
					0.06270046532154083,
					0.07658150792121887,
					0.07460572570562363,
					1
				],
				"metallicFactor":0.6696035861968994,
				"roughnessFactor":0.5440528392791748
			}
		},
		{
			"doubleSided":true,
			"name":"Material",
			"pbrMetallicRoughness":{
				"metallicFactor":0,
				"roughnessFactor":0.6977273225784302
			}
		},
		{
			"doubleSided":true,
			"name":"Material.002",
			"pbrMetallicRoughness":{
				"metallicFactor":0.09090909361839294,
				"roughnessFactor":0.6431818604469299
			}
		},
		{
			"doubleSided":true,
			"extensions":{
				"KHR_materials_transmission":{
					"transmissionFactor":0.8909090757369995
				},
				"KHR_materials_ior":{
					"ior":1.4500000476837158
				}
			},
			"name":"Material.004",
			"pbrMetallicRoughness":{
				"metallicFactor":0
			}
		},
		{
			"doubleSided":true,
			"extensions":{
				"KHR_materials_transmission":{
					"transmissionFactor":0.8909090757369995
				},
				"KHR_materials_ior":{
					"ior":1.4500000476837158
				}
			},
			"name":"Material.005",
			"pbrMetallicRoughness":{
				"metallicFactor":0
			}
		},
		{
			"doubleSided":true,
			"extensions":{
				"KHR_materials_transmission":{
					"transmissionFactor":1
				},
				"KHR_materials_ior":{
					"ior":1.4500000476837158
				}
			},
			"name":"Material.006",
			"pbrMetallicRoughness":{
				"baseColorFactor":[
					0.6582974195480347,
					0.8000000715255737,
					0.6627746224403381,
					1
				],
				"metallicFactor":0,
				"roughnessFactor":0.04318181797862053
			}
		},
		{
			"doubleSided":true,
			"extensions":{
				"KHR_materials_transmission":{
					"transmissionFactor":1
				},
				"KHR_materials_ior":{
					"ior":1.4500000476837158
				}
			},
			"name":"Material.007",
			"pbrMetallicRoughness":{
				"baseColorFactor":[
					0.6582974195480347,
					0.8000000715255737,
					0.6627746224403381,
					1
				],
				"metallicFactor":0,
				"roughnessFactor":0.04318181797862053
			}
		},
		{
			"doubleSided":true,
			"extensions":{
				"KHR_materials_transmission":{
					"transmissionFactor":1
				},
				"KHR_materials_ior":{
					"ior":1.4500000476837158
				}
			},
			"name":"Material.010",
			"pbrMetallicRoughness":{
				"baseColorFactor":[
					0.7310977578163147,
					0.8000000715255737,
					0.7904514074325562,
					1
				],
				"metallicFactor":0,
				"roughnessFactor":0
			}
		}
	],
	"meshes":[
		{
			"name":"Circle.001",
			"primitives":[
				{
					"attributes":{
						"POSITION":0,
						"NORMAL":1,
						"TEXCOORD_0":2
					},
					"indices":3,
					"material":0
				}
			]
		},
		{
			"name":"Plane.001",
			"primitives":[
				{
					"attributes":{
						"POSITION":4,
						"NORMAL":5,
						"TEXCOORD_0":6
					},
					"indices":7,
					"material":1
				}
			]
		},
		{
			"name":"Cylinder.002",
			"primitives":[
				{
					"attributes":{
						"POSITION":8,
						"NORMAL":9,
						"TEXCOORD_0":10
					},
					"indices":11,
					"material":2
				}
			]
		},
		{
			"name":"Circle.006",
			"primitives":[
				{
					"attributes":{
						"POSITION":12,
						"NORMAL":13,
						"TEXCOORD_0":14
					},
					"indices":15,
					"material":3
				}
			]
		},
		{
			"name":"Circle.002",
			"primitives":[
				{
					"attributes":{
						"POSITION":16,
						"NORMAL":17,
						"TEXCOORD_0":18
					},
					"indices":19,
					"material":4
				}
			]
		},
		{
			"name":"Circle",
			"primitives":[
				{
					"attributes":{
						"POSITION":20,
						"NORMAL":21,
						"TEXCOORD_0":22
					},
					"indices":19,
					"material":5
				}
			]
		},
		{
			"name":"Icosphere.001",
			"primitives":[
				{
					"attributes":{
						"POSITION":23,
						"NORMAL":24,
						"TEXCOORD_0":25
					},
					"indices":26,
					"material":6
				}
			]
		},
		{
			"name":"Icosphere.002",
			"primitives":[
				{
					"attributes":{
						"POSITION":27,
						"NORMAL":28,
						"TEXCOORD_0":29
					},
					"indices":26,
					"material":7
				}
			]
		},
		{
			"name":"Icosphere.003",
			"primitives":[
				{
					"attributes":{
						"POSITION":30,
						"NORMAL":31,
						"TEXCOORD_0":32
					},
					"indices":26,
					"material":8
				}
			]
		}
	],
	"accessors":[
		{
			"bufferView":0,
			"componentType":5126,
			"count":26229,
			"max":[
				3.2488698959350586,
				2.521893262863159,
				3.232661008834839
			],
			"min":[
				-3.1260762214660645,
				-1.1860202550888062,
				-3.0846238136291504
			],
			"type":"VEC3"
		},
		{
			"bufferView":1,
			"componentType":5126,
			"count":26229,
			"type":"VEC3"
		},
		{
			"bufferView":2,
			"componentType":5126,
			"count":26229,
			"type":"VEC2"
		},
		{
			"bufferView":3,
			"componentType":5123,
			"count":136239,
			"type":"SCALAR"
		},
		{
			"bufferView":4,
			"componentType":5126,
			"count":18,
			"max":[
				1,
				1.6744619607925415,
				1
			],
			"min":[
				-1,
				0,
				-0.4375699758529663
			],
			"type":"VEC3"
		},
		{
			"bufferView":5,
			"componentType":5126,
			"count":18,
			"type":"VEC3"
		},
		{
			"bufferView":6,
			"componentType":5126,
			"count":18,
			"type":"VEC2"
		},
		{
			"bufferView":7,
			"componentType":5123,
			"count":48,
			"type":"SCALAR"
		},
		{
			"bufferView":8,
			"componentType":5126,
			"count":3293,
			"max":[
				1.8878241777420044,
				1.916611909866333,
				1.987788200378418
			],
			"min":[
				-1.787691354751587,
				-0.0125923752784729,
				-1.9105243682861328
			],
			"type":"VEC3"
		},
		{
			"bufferView":9,
			"componentType":5126,
			"count":3293,
			"type":"VEC3"
		},
		{
			"bufferView":10,
			"componentType":5126,
			"count":3293,
			"type":"VEC2"
		},
		{
			"bufferView":11,
			"componentType":5123,
			"count":16731,
			"type":"SCALAR"
		},
		{
			"bufferView":12,
			"componentType":5126,
			"count":4856,
			"max":[
				1.3352888822555542,
				0.9553634524345398,
				1.080621361732483
			],
			"min":[
				-0.9632849097251892,
				-0.36257198452949524,
				-1.043112874031067
			],
			"type":"VEC3"
		},
		{
			"bufferView":13,
			"componentType":5126,
			"count":4856,
			"type":"VEC3"
		},
		{
			"bufferView":14,
			"componentType":5126,
			"count":4856,
			"type":"VEC2"
		},
		{
			"bufferView":15,
			"componentType":5123,
			"count":23631,
			"type":"SCALAR"
		},
		{
			"bufferView":16,
			"componentType":5126,
			"count":128,
			"max":[
				0.709540843963623,
				0.14765134453773499,
				0.709540843963623
			],
			"min":[
				-0.709540843963623,
				-0.03098827600479126,
				-0.709540843963623
			],
			"type":"VEC3"
		},
		{
			"bufferView":17,
			"componentType":5126,
			"count":128,
			"type":"VEC3"
		},
		{
			"bufferView":18,
			"componentType":5126,
			"count":128,
			"type":"VEC2"
		},
		{
			"bufferView":19,
			"componentType":5123,
			"count":192,
			"type":"SCALAR"
		},
		{
			"bufferView":20,
			"componentType":5126,
			"count":128,
			"max":[
				0.5312071442604065,
				0.19811680912971497,
				0.5312071442604065
			],
			"min":[
				-0.5312071442604065,
				-0.03098827600479126,
				-0.5312071442604065
			],
			"type":"VEC3"
		},
		{
			"bufferView":21,
			"componentType":5126,
			"count":128,
			"type":"VEC3"
		},
		{
			"bufferView":22,
			"componentType":5126,
			"count":128,
			"type":"VEC2"
		},
		{
			"bufferView":23,
			"componentType":5126,
			"count":2737,
			"max":[
				1,
				1,
				0.9999999403953552
			],
			"min":[
				-0.9999999403953552,
				-1,
				-0.9999999403953552
			],
			"type":"VEC3"
		},
		{
			"bufferView":24,
			"componentType":5126,
			"count":2737,
			"type":"VEC3"
		},
		{
			"bufferView":25,
			"componentType":5126,
			"count":2737,
			"type":"VEC2"
		},
		{
			"bufferView":26,
			"componentType":5123,
			"count":15360,
			"type":"SCALAR"
		},
		{
			"bufferView":27,
			"componentType":5126,
			"count":2737,
			"max":[
				1,
				1,
				0.9999999403953552
			],
			"min":[
				-0.9999999403953552,
				-1,
				-0.9999999403953552
			],
			"type":"VEC3"
		},
		{
			"bufferView":28,
			"componentType":5126,
			"count":2737,
			"type":"VEC3"
		},
		{
			"bufferView":29,
			"componentType":5126,
			"count":2737,
			"type":"VEC2"
		},
		{
			"bufferView":30,
			"componentType":5126,
			"count":2737,
			"max":[
				1,
				1,
				0.9999999403953552
			],
			"min":[
				-0.9999999403953552,
				-1,
				-0.9999999403953552
			],
			"type":"VEC3"
		},
		{
			"bufferView":31,
			"componentType":5126,
			"count":2737,
			"type":"VEC3"
		},
		{
			"bufferView":32,
			"componentType":5126,
			"count":2737,
			"type":"VEC2"
		}
	],
	"bufferViews":[
		{
			"buffer":0,
			"byteLength":314748,
			"byteOffset":0,
			"target":34962
		},
		{
			"buffer":0,
			"byteLength":314748,
			"byteOffset":314748,
			"target":34962
		},
		{
			"buffer":0,
			"byteLength":209832,
			"byteOffset":629496,
			"target":34962
		},
		{
			"buffer":0,
			"byteLength":272478,
			"byteOffset":839328,
			"target":34963
		},
		{
			"buffer":0,
			"byteLength":216,
			"byteOffset":1111808,
			"target":34962
		},
		{
			"buffer":0,
			"byteLength":216,
			"byteOffset":1112024,
			"target":34962
		},
		{
			"buffer":0,
			"byteLength":144,
			"byteOffset":1112240,
			"target":34962
		},
		{
			"buffer":0,
			"byteLength":96,
			"byteOffset":1112384,
			"target":34963
		},
		{
			"buffer":0,
			"byteLength":39516,
			"byteOffset":1112480,
			"target":34962
		},
		{
			"buffer":0,
			"byteLength":39516,
			"byteOffset":1151996,
			"target":34962
		},
		{
			"buffer":0,
			"byteLength":26344,
			"byteOffset":1191512,
			"target":34962
		},
		{
			"buffer":0,
			"byteLength":33462,
			"byteOffset":1217856,
			"target":34963
		},
		{
			"buffer":0,
			"byteLength":58272,
			"byteOffset":1251320,
			"target":34962
		},
		{
			"buffer":0,
			"byteLength":58272,
			"byteOffset":1309592,
			"target":34962
		},
		{
			"buffer":0,
			"byteLength":38848,
			"byteOffset":1367864,
			"target":34962
		},
		{
			"buffer":0,
			"byteLength":47262,
			"byteOffset":1406712,
			"target":34963
		},
		{
			"buffer":0,
			"byteLength":1536,
			"byteOffset":1453976,
			"target":34962
		},
		{
			"buffer":0,
			"byteLength":1536,
			"byteOffset":1455512,
			"target":34962
		},
		{
			"buffer":0,
			"byteLength":1024,
			"byteOffset":1457048,
			"target":34962
		},
		{
			"buffer":0,
			"byteLength":384,
			"byteOffset":1458072,
			"target":34963
		},
		{
			"buffer":0,
			"byteLength":1536,
			"byteOffset":1458456,
			"target":34962
		},
		{
			"buffer":0,
			"byteLength":1536,
			"byteOffset":1459992,
			"target":34962
		},
		{
			"buffer":0,
			"byteLength":1024,
			"byteOffset":1461528,
			"target":34962
		},
		{
			"buffer":0,
			"byteLength":32844,
			"byteOffset":1462552,
			"target":34962
		},
		{
			"buffer":0,
			"byteLength":32844,
			"byteOffset":1495396,
			"target":34962
		},
		{
			"buffer":0,
			"byteLength":21896,
			"byteOffset":1528240,
			"target":34962
		},
		{
			"buffer":0,
			"byteLength":30720,
			"byteOffset":1550136,
			"target":34963
		},
		{
			"buffer":0,
			"byteLength":32844,
			"byteOffset":1580856,
			"target":34962
		},
		{
			"buffer":0,
			"byteLength":32844,
			"byteOffset":1613700,
			"target":34962
		},
		{
			"buffer":0,
			"byteLength":21896,
			"byteOffset":1646544,
			"target":34962
		},
		{
			"buffer":0,
			"byteLength":32844,
			"byteOffset":1668440,
			"target":34962
		},
		{
			"buffer":0,
			"byteLength":32844,
			"byteOffset":1701284,
			"target":34962
		},
		{
			"buffer":0,
			"byteLength":21896,
			"byteOffset":1734128,
			"target":34962
		}
	],
	"buffers":[
		{
			"byteLength":1756024,
			"uri":"reef.bin"
		}
	]
}
