{
	"asset":{
		"generator":"Khronos glTF Blender I/O v3.6.28",
		"version":"2.0"
	},
	"extensionsUsed":[
		"KHR_materials_specular",
		"KHR_materials_ior",
		"KHR_texture_transform"
	],
	"extensionsRequired":[
		"KHR_texture_transform"
	],
	"scene":0,
	"scenes":[
		{
			"name":"Scene",
			"nodes":[
				3,
				4
			]
		}
	],
	"nodes":[
		{
			"mesh":0,
			"name":"Cube.003",
			"rotation":[
				1,
				0,
				0,
				0
			],
			"scale":[
				-0.9999999403953552,
				-0.9999999403953552,
				-0.9999999403953552
			],
			"translation":[
				-4.2874531745910645,
				2.8946969509124756,
				0
			]
		},
		{
			"mesh":1,
			"name":"Cube.005",
			"rotation":[
				0,
				0,
				-1,
				0
			]
		},
		{
			"mesh":2,
			"name":"Cube.006",
			"rotation":[
				0,
				1,
				0,
				8.742278367890322e-08
			],
			"scale":[
				-0.9999999403953552,
				-0.9999999403953552,
				-0.9999999403953552
			],
			"translation":[
				4.773844242095947,
				-2.2858388423919678,
				0
			]
		},
		{
			"children":[
				0,
				1,
				2
			],
			"mesh":3,
			"name":"Cube.002",
			"rotation":[
				0,
				0,
				-1,
				0
			],
			"scale":[
				0.7577088475227356,
				0.7577088475227356,
				0.7577088475227356
			]
		},
		{
			"mesh":4,
			"name":"Plane",
			"rotation":[
				0.7071068286895752,
				0,
				0,
				0.7071067690849304
			],
			"scale":[
				3.819631814956665,
				3.819631814956665,
				3.819631814956665
			],
			"translation":[
				0,
				0,
				3.458343267440796
			]
		}
	],
	"materials":[
		{
			"doubleSided":true,
			"extensions":{
				"KHR_materials_specular":{
					"specularColorFactor":[
						1.250352276372042,
						1.250352276372042,
						1.250352276372042
					]
				},
				"KHR_materials_ior":{
					"ior":1.4500000476837158
				}
			},
			"name":"Material.001",
			"pbrMetallicRoughness":{
				"baseColorFactor":[
					1,
					0.8938109278678894,
					0.6160219311714172,
					1
				],
				"metallicFactor":0.4795454740524292,
				"roughnessFactor":0.28863635659217834
			}
		},
		{
			"doubleSided":true,
			"name":"sand",
			"normalTexture":{
				"extensions":{
					"KHR_texture_transform":{
						"offset":[
							0,
							0.3749999627470948
						],
						"scale":[
							0.2941177625557584,
							0.6250000372529052
						]
					}
				},
				"index":0,
				"texCoord":1
			},
			"pbrMetallicRoughness":{
				"baseColorTexture":{
					"extensions":{
						"KHR_texture_transform":{
							"offset":[
								0,
								0.3749999627470948
							],
							"scale":[
								0.2941177625557584,
								0.6250000372529052
							]
						}
					},
					"index":1,
					"texCoord":1
				},
				"metallicFactor":0
			}
		}
	],
	"meshes":[
		{
			"name":"Cube.011",
			"primitives":[
				{
					"attributes":{
						"POSITION":0,
						"NORMAL":1,
						"TEXCOORD_0":2,
						"TEXCOORD_1":3
					},
					"indices":4,
					"material":0
				}
			]
		},
		{
			"name":"Cube.001",
			"primitives":[
				{
					"attributes":{
						"POSITION":5,
						"NORMAL":6,
						"TEXCOORD_0":7,
						"TEXCOORD_1":8
					},
					"indices":9,
					"material":0
				}
			]
		},
		{
			"name":"Cube.012",
			"primitives":[
				{
					"attributes":{
						"POSITION":10,
						"NORMAL":11,
						"TEXCOORD_0":12,
						"TEXCOORD_1":13
					},
					"indices":4,
					"material":0
				}
			]
		},
		{
			"name":"Cube.010",
			"primitives":[
				{
					"attributes":{
						"POSITION":14,
						"NORMAL":15,
						"TEXCOORD_0":16,
						"TEXCOORD_1":17
					},
					"indices":9,
					"material":0
				}
			]
		},
		{
			"name":"Plane",
			"primitives":[
				{
					"attributes":{
						"POSITION":18,
						"NORMAL":19,
						"TEXCOORD_0":20,
						"TEXCOORD_1":21
					},
					"indices":22,
					"material":1
				}
			]
		}
	],
	"textures":[
		{
			"sampler":0,
			"source":0
		},
		{
			"sampler":0,
			"source":0
		}
	],
	"images":[
		{
			"mimeType":"image/jpeg",
			"name":"sand",
			"uri":"sand.jpg"
		}
	],
	"accessors":[
		{
			"bufferView":0,
			"componentType":5126,
			"count":2733,
			"max":[
				1.6445789337158203,
				1.6345702409744263,
				0.5789981484413147
			],
			"min":[
				-0.05451762676239014,
				-0.04636329412460327,
				-0.5712769031524658
			],
			"type":"VEC3"
		},
		{
			"bufferView":1,
			"componentType":5126,
			"count":2733,
			"type":"VEC3"
		},
		{
			"bufferView":2,
			"componentType":5126,
			"count":2733,
			"type":"VEC2"
		},
		{
			"bufferView":3,
			"componentType":5126,
			"count":2733,
			"type":"VEC2"
		},
		{
			"bufferView":4,
			"componentType":5123,
			"count":13548,
			"type":"SCALAR"
		},
		{
			"bufferView":5,
			"componentType":5126,
			"count":663,
			"max":[
				1.669914960861206,
				1.645018219947815,
				0.5833532810211182
			],
			"min":[
				-0.04259556531906128,
				-0.04895418882369995,
				-0.5833534002304077
			],
			"type":"VEC3"
		},
		{
			"bufferView":6,
			"componentType":5126,
			"count":663,
			"type":"VEC3"
		},
		{
			"bufferView":7,
			"componentType":5126,
			"count":663,
			"type":"VEC2"
		},
		{
			"bufferView":8,
			"componentType":5126,
			"count":663,
			"type":"VEC2"
		},
		{
			"bufferView":9,
			"componentType":5123,
			"count":2880,
			"type":"SCALAR"
		},
		{
			"bufferView":10,
			"componentType":5126,
			"count":2733,
			"max":[
				1.6617238521575928,
				1.6305208206176758,
				0.5789979696273804
			],
			"min":[
				-0.03737276792526245,
				-0.050412654876708984,
				-0.5712770819664001
			],
			"type":"VEC3"
		},
		{
			"bufferView":11,
			"componentType":5126,
			"count":2733,
			"type":"VEC3"
		},
		{
			"bufferView":12,
			"componentType":5126,
			"count":2733,
			"type":"VEC2"
		},
		{
			"bufferView":13,
			"componentType":5126,
			"count":2733,
			"type":"VEC2"
		},
		{
			"bufferView":14,
			"componentType":5126,
			"count":663,
			"max":[
				1.6599550247192383,
				1.6474175453186035,
				0.5833532810211182
			],
			"min":[
				-0.052555620670318604,
				-0.04655486345291138,
				-0.5833534002304077
			],
			"type":"VEC3"
		},
		{
			"bufferView":15,
			"componentType":5126,
			"count":663,
			"type":"VEC3"
		},
		{
			"bufferView":16,
			"componentType":5126,
			"count":663,
			"type":"VEC2"
		},
		{
			"bufferView":17,
			"componentType":5126,
			"count":663,
			"type":"VEC2"
		},
		{
			"bufferView":18,
			"componentType":5126,
			"count":4,
			"max":[
				1,
				0,
				1
			],
			"min":[
				-1,
				0,
				-1
			],
			"type":"VEC3"
		},
		{
			"bufferView":19,
			"componentType":5126,
			"count":4,
			"type":"VEC3"
		},
		{
			"bufferView":20,
			"componentType":5126,
			"count":4,
			"type":"VEC2"
		},
		{
			"bufferView":21,
			"componentType":5126,
			"count":4,
			"type":"VEC2"
		},
		{
			"bufferView":22,
			"componentType":5123,
			"count":6,
			"type":"SCALAR"
		}
	],
	"bufferViews":[
		{
			"buffer":0,
			"byteLength":32796,
			"byteOffset":0,
			"target":34962
		},
		{
			"buffer":0,
			"byteLength":32796,
			"byteOffset":32796,
			"target":34962
		},
		{
			"buffer":0,
			"byteLength":21864,
			"byteOffset":65592,
			"target":34962
		},
		{
			"buffer":0,
			"byteLength":21864,
			"byteOffset":87456,
			"target":34962
		},
		{
			"buffer":0,
			"byteLength":27096,
			"byteOffset":109320,
			"target":34963
		},
		{
			"buffer":0,
			"byteLength":7956,
			"byteOffset":136416,
			"target":34962
		},
		{
			"buffer":0,
			"byteLength":7956,
			"byteOffset":144372,
			"target":34962
		},
		{
			"buffer":0,
			"byteLength":5304,
			"byteOffset":152328,
			"target":34962
		},
		{
			"buffer":0,
			"byteLength":5304,
			"byteOffset":157632,
			"target":34962
		},
		{
			"buffer":0,
			"byteLength":5760,
			"byteOffset":162936,
			"target":34963
		},
		{
			"buffer":0,
			"byteLength":32796,
			"byteOffset":168696,
			"target":34962
		},
		{
			"buffer":0,
			"byteLength":32796,
			"byteOffset":201492,
			"target":34962
		},
		{
			"buffer":0,
			"byteLength":21864,
			"byteOffset":234288,
			"target":34962
		},
		{
			"buffer":0,
			"byteLength":21864,
			"byteOffset":256152,
			"target":34962
		},
		{
			"buffer":0,
			"byteLength":7956,
			"byteOffset":278016,
			"target":34962
		},
		{
			"buffer":0,
			"byteLength":7956,
			"byteOffset":285972,
			"target":34962
		},
		{
			"buffer":0,
			"byteLength":5304,
			"byteOffset":293928,
			"target":34962
		},
		{
			"buffer":0,
			"byteLength":5304,
			"byteOffset":299232,
			"target":34962
		},
		{
			"buffer":0,
			"byteLength":48,
			"byteOffset":304536,
			"target":34962
		},
		{
			"buffer":0,
			"byteLength":48,
			"byteOffset":304584,
			"target":34962
		},
		{
			"buffer":0,
			"byteLength":32,
			"byteOffset":304632,
			"target":34962
		},
		{
			"buffer":0,
			"byteLength":32,
			"byteOffset":304664,
			"target":34962
		},
		{
			"buffer":0,
			"byteLength":12,
			"byteOffset":304696,
			"target":34963
		}
	],
	"samplers":[
		{
			"magFilter":9729,
			"minFilter":9987
		}
	],
	"buffers":[
		{
			"byteLength":304708,
			"uri":"Logo_Anim.bin"
		}
	]
}
